<svg width="104" height="14" viewBox="0 0 104 14" fill="none" xmlns="http://www.w3.org/2000/svg">
<g clip-path="url(#clip0)">
<path fill-rule="evenodd" clip-rule="evenodd" d="M42.84 13.6451V0.205109C42.84 0.111776 42.7644 0.0371094 42.6698 0.0371094H40.2103C40.1157 0.0371094 40.04 0.111776 40.04 0.205109V13.6451C40.04 13.7384 40.1157 13.8131 40.2103 13.8131H42.6698C42.7644 13.8131 42.84 13.7384 42.84 13.6451Z" fill="black" stroke="black"/>
<path fill-rule="evenodd" clip-rule="evenodd" d="M13.776 0.0371094H0.335969C0.242635 0.0371094 0.167969 0.111776 0.167969 0.205109V13.6451C0.167969 13.7384 0.242635 13.8131 0.335969 13.8131H2.74397C2.8373 13.8131 2.91197 13.7384 2.91197 13.6451V8.47444C2.91197 8.38111 2.98664 8.30644 3.07997 8.30644H11.032C11.1253 8.30644 11.2 8.23178 11.2 8.13844V5.71178C11.2 5.61844 11.1253 5.54378 11.032 5.54378H3.07997C2.98664 5.54378 2.91197 5.46911 2.91197 5.37578V2.94911C2.91197 2.85578 2.98664 2.78111 3.07997 2.78111H13.776C13.8693 2.78111 13.944 2.70644 13.944 2.61311V0.205109C13.944 0.111776 13.8693 0.0371094 13.776 0.0371094Z" fill="black" stroke="black"/>
<path fill-rule="evenodd" clip-rule="evenodd" d="M63.3921 0.0185547H56.8028C56.7094 0.0185547 56.6348 0.0932214 56.6348 0.186555V13.6266C56.6348 13.7199 56.7094 13.7946 56.8028 13.7946H63.5228C67.3868 13.7946 70.5228 10.6026 70.4108 6.70122C70.3361 2.96789 67.1441 0.0185547 63.3921 0.0185547ZM63.7281 11.0506H59.5654C59.4721 11.0506 59.3974 10.9759 59.3974 10.8826V2.94922C59.3974 2.85589 59.4721 2.78122 59.5654 2.78122H63.5414C66.4348 2.78122 68.6561 5.78655 67.2374 8.84789C66.6774 10.0612 65.0908 11.0506 63.7281 11.0506Z" fill="black" stroke="black"/>
<path fill-rule="evenodd" clip-rule="evenodd" d="M29.7924 8.47448C29.7177 8.38115 29.7737 8.23182 29.9044 8.21315C30.6511 8.06382 31.3231 7.72782 31.8644 7.24248C31.8831 7.22382 31.9017 7.20515 31.9204 7.20515C32.0884 7.03715 32.2564 6.86915 32.4057 6.68248C32.4244 6.64515 32.4617 6.60782 32.4804 6.57048C32.5177 6.51448 32.5551 6.45848 32.5924 6.40248C32.6111 6.36515 32.6484 6.32782 32.6671 6.29048C32.7044 6.21582 32.7791 6.08515 32.8164 6.01048C32.8537 5.95448 32.8724 5.89848 32.8911 5.84248C32.9097 5.78648 32.9471 5.71182 32.9657 5.65582C32.9844 5.59982 33.0031 5.54382 33.0217 5.48782C33.0404 5.45048 33.0404 5.41315 33.0591 5.37582C33.0964 5.26382 33.1151 5.15182 33.1524 5.03982C33.1524 5.02115 33.1711 4.98382 33.1711 4.96515C33.1897 4.87182 33.2084 4.77848 33.2084 4.68515C33.2084 4.64782 33.2271 4.61048 33.2271 4.57315C33.2457 4.44248 33.2457 4.33048 33.2457 4.19982C33.2457 4.06915 33.2457 3.93848 33.2271 3.82648C33.2271 3.78915 33.2271 3.75182 33.2084 3.71448C33.1897 3.62115 33.1897 3.52782 33.1711 3.43448C33.1711 3.41582 33.1711 3.37848 33.1524 3.35982C33.1337 3.24782 33.0964 3.13582 33.0591 3.02382C33.0404 2.98648 33.0404 2.94915 33.0217 2.91182C33.0031 2.85582 32.9844 2.79982 32.9657 2.74382C32.9471 2.68782 32.9097 2.61315 32.8911 2.55715C32.8724 2.50115 32.8351 2.44515 32.8164 2.38915C32.7791 2.31448 32.7044 2.18382 32.6671 2.10915C32.6484 2.07182 32.6297 2.03448 32.5924 1.99715C32.5551 1.94115 32.5177 1.88515 32.4804 1.82915C32.4617 1.79182 32.4244 1.75448 32.4057 1.71715C32.2564 1.53048 32.1071 1.34382 31.9204 1.19448C31.9017 1.17582 31.8831 1.15715 31.8644 1.15715C31.1364 0.503816 30.1657 0.111816 29.1204 0.111816H19.6377C19.5444 0.111816 19.4697 0.186483 19.4697 0.279816V13.7198C19.4697 13.8131 19.5444 13.8878 19.6377 13.8878H22.0644C22.1577 13.8878 22.2324 13.8131 22.2324 13.7198V8.54915C22.2324 8.45582 22.3071 8.38115 22.4004 8.38115H26.3204C26.3764 8.38115 26.4324 8.39982 26.4511 8.45582L30.4271 13.8318C30.4644 13.8691 30.5017 13.9065 30.5577 13.9065H33.0591C33.1897 13.9065 33.2644 13.7571 33.2084 13.6451L29.7924 8.47448ZM29.1204 5.54382H22.4004C22.3071 5.54382 22.2324 5.46915 22.2324 5.37582V2.94915C22.2324 2.85582 22.3071 2.78115 22.4004 2.78115H29.3071C29.6617 2.78115 29.9977 2.94915 30.2031 3.24782C30.9497 4.34915 30.1657 5.54382 29.1204 5.54382Z" fill="black" stroke="black"/>
<path d="M49.7467 5.58125C50.5199 5.58125 51.1467 4.95445 51.1467 4.18125C51.1467 3.40805 50.5199 2.78125 49.7467 2.78125C48.9735 2.78125 48.3467 3.40805 48.3467 4.18125C48.3467 4.95445 48.9735 5.58125 49.7467 5.58125Z" fill="black" stroke="black"/>
<path d="M49.7467 11.0881C50.5199 11.0881 51.1467 10.4613 51.1467 9.68809C51.1467 8.91489 50.5199 8.28809 49.7467 8.28809C48.9735 8.28809 48.3467 8.91489 48.3467 9.68809C48.3467 10.4613 48.9735 11.0881 49.7467 11.0881Z" fill="black" stroke="black"/>
<path fill-rule="evenodd" clip-rule="evenodd" d="M101.192 0.0746667L97.2532 5.46933C97.1785 5.56267 97.0478 5.56267 96.9918 5.46933L93.0345 0.0933333C92.9972 0.056 92.9599 0.0186667 92.9039 0.0186667H90.4025C90.2719 0.0186667 90.1972 0.168 90.2532 0.28L95.7039 8.26933C95.7225 8.288 95.7412 8.32533 95.7412 8.36267V13.6267C95.7412 13.72 95.8159 13.7947 95.9092 13.7947H98.3545C98.4479 13.7947 98.5225 13.72 98.5225 13.6267V8.344C98.5225 8.30667 98.5412 8.26933 98.5599 8.25067L104.011 0.261333C104.085 0.149333 104.011 0 103.861 0H101.36C101.267 0.0186667 101.211 0.0373333 101.192 0.0746667Z" fill="black" stroke="black"/>
<path fill-rule="evenodd" clip-rule="evenodd" d="M89.6742 13.5519L82.8235 0.111888C82.7862 0.055888 82.7302 0.0185547 82.6742 0.0185547H80.2102C80.1542 0.0185547 80.0795 0.055888 80.0609 0.111888L73.2102 13.5519C73.1542 13.6639 73.2289 13.7946 73.3595 13.7946H75.8049C75.8796 13.7946 75.9355 13.7572 75.9542 13.7012L77.1862 11.1626C77.2049 11.1066 77.2795 11.0692 77.3355 11.0692H85.5302C85.6049 11.0692 85.6609 11.1066 85.6795 11.1626L86.9116 13.7012C86.9302 13.7572 87.0049 13.7946 87.0609 13.7946H89.5062C89.6555 13.7946 89.7302 13.6639 89.6742 13.5519ZM83.9995 8.28789H78.9035C78.7915 8.28789 78.6982 8.15722 78.7542 8.04522L81.2929 2.85589C81.3302 2.78122 81.3862 2.76255 81.4422 2.76255C81.4982 2.76255 81.5729 2.79989 81.5916 2.85589L84.1302 8.04522C84.2049 8.15722 84.1115 8.28789 83.9995 8.28789Z" fill="black" stroke="black"/>
</g>
<defs>
<clipPath id="clip0">
<rect width="104" height="14" fill="white"/>
</clipPath>
</defs>
</svg>
